# xmcd CD database file
#
# Track frame offsets:
#	187
#	19167
#	41202
#	60932
#	77062
#	98912
#	118745
#	137845
#
# Disc length: 2055 seconds
#
# Revision: 0
# Processed by: cddbd v1.5.1PL0 Copyright (c) Steve Scherf et al.
# Submitted via: CDex 1.51
#
DISCID=66080508
DTITLE=Tal Farlow - This is Tal Farlow
DYEAR=1900
DGENRE=Jazz
TTITLE0=LEAN ON ME
TTITLE1=WONDER WHY
TTITLE2=NIGHT AND DAY
TTITLE3=STELLA BY STARLIGHT
TTITLE4=THE MORE I SEE YOU
TTITLE5=ALL THE THINGS YOU ARE
TTITLE6=HOW LONG HAS THIS BEEN GOING ON
TTITLE7=TOPSY
EXTD=
EXTT0=
EXTT1=
EXTT2=
EXTT3=
EXTT4=
EXTT5=
EXTT6=
EXTT7=
PLAYORDER=
